<mxfile host="app.diagrams.net" agent="Mozilla/5.0 (Windows NT 10.0; Win64; x64) AppleWebKit/537.36 (KHTML, like Gecko) Chrome/140.0.0.0 Safari/537.36" version="28.2.3" pages="2">
  <diagram name="Trang-1" id="khro7Q_lT8lWeLfVhPsb">
    <mxGraphModel dx="868" dy="497" grid="1" gridSize="10" guides="1" tooltips="1" connect="1" arrows="1" fold="1" page="1" pageScale="1" pageWidth="827" pageHeight="1169" math="0" shadow="0">
      <root>
        <mxCell id="0" />
        <mxCell id="1" parent="0" />
        <mxCell id="I9i4GcksaswnYCEfUJ4z-5" value="" style="edgeStyle=orthogonalEdgeStyle;rounded=0;orthogonalLoop=1;jettySize=auto;html=1;" edge="1" parent="1" source="I9i4GcksaswnYCEfUJ4z-1" target="I9i4GcksaswnYCEfUJ4z-3">
          <mxGeometry relative="1" as="geometry" />
        </mxCell>
        <mxCell id="I9i4GcksaswnYCEfUJ4z-1" value="start" style="ellipse;whiteSpace=wrap;html=1;" vertex="1" parent="1">
          <mxGeometry x="350" y="114" width="120" height="80" as="geometry" />
        </mxCell>
        <mxCell id="I9i4GcksaswnYCEfUJ4z-21" value="" style="edgeStyle=orthogonalEdgeStyle;rounded=0;orthogonalLoop=1;jettySize=auto;html=1;" edge="1" parent="1" source="I9i4GcksaswnYCEfUJ4z-3" target="I9i4GcksaswnYCEfUJ4z-14">
          <mxGeometry relative="1" as="geometry" />
        </mxCell>
        <mxCell id="I9i4GcksaswnYCEfUJ4z-3" value="chọn món ăn" style="rounded=0;whiteSpace=wrap;html=1;" vertex="1" parent="1">
          <mxGeometry x="350" y="241" width="120" height="60" as="geometry" />
        </mxCell>
        <mxCell id="I9i4GcksaswnYCEfUJ4z-6" value="" style="shape=parallelogram;perimeter=parallelogramPerimeter;whiteSpace=wrap;html=1;fixedSize=1;" vertex="1" parent="1">
          <mxGeometry x="350" y="331" width="120" height="60" as="geometry" />
        </mxCell>
        <mxCell id="I9i4GcksaswnYCEfUJ4z-22" value="" style="edgeStyle=orthogonalEdgeStyle;rounded=0;orthogonalLoop=1;jettySize=auto;html=1;" edge="1" parent="1" source="I9i4GcksaswnYCEfUJ4z-14" target="I9i4GcksaswnYCEfUJ4z-19">
          <mxGeometry relative="1" as="geometry" />
        </mxCell>
        <mxCell id="I9i4GcksaswnYCEfUJ4z-14" value="thêm món ăn vào giỏ hàng" style="text;strokeColor=none;align=center;fillColor=none;html=1;verticalAlign=middle;whiteSpace=wrap;rounded=0;" vertex="1" parent="1">
          <mxGeometry x="380" y="350" width="60" height="30" as="geometry" />
        </mxCell>
        <mxCell id="I9i4GcksaswnYCEfUJ4z-19" value="xác nhận món ăn đã chọn" style="rhombus;whiteSpace=wrap;html=1;" vertex="1" parent="1">
          <mxGeometry x="370" y="427" width="80" height="80" as="geometry" />
        </mxCell>
      </root>
    </mxGraphModel>
  </diagram>
  <diagram id="LzcqzmHeNEdU9Ilg9snC" name="Trang-2">
    <mxGraphModel dx="1389" dy="795" grid="1" gridSize="10" guides="1" tooltips="1" connect="1" arrows="1" fold="1" page="1" pageScale="1" pageWidth="827" pageHeight="1169" math="0" shadow="0">
      <root>
        <mxCell id="0" />
        <mxCell id="1" parent="0" />
      </root>
    </mxGraphModel>
  </diagram>
</mxfile>
